<svg width="48" height="18" viewBox="0 0 48 18" fill="none" xmlns="http://www.w3.org/2000/svg">
<path d="M5.10519 4.83373L4.2097 2.67088L3.31421 4.83373H5.10519ZM24.9221 3.9817C24.7396 4.09639 24.5241 4.09639 24.2753 4.09639H22.6833V2.88388H24.3085C24.5406 2.88388 24.7728 2.90027 24.9386 2.9822C25.1045 3.06412 25.2206 3.22797 25.2206 3.45737C25.1874 3.70315 25.0879 3.88339 24.9221 3.9817ZM36.3147 4.83373L35.4026 2.67088L34.4905 4.83373H36.3147ZM15.0882 7.17682H13.745V2.91666L11.8379 7.17682H10.6771L8.77007 2.91666V7.17682H6.08359L5.5861 5.96431H2.84988L2.3358 7.17682H0.90965L3.26446 1.7533H5.22127L7.44341 6.89827V1.7533H9.58264L11.3073 5.43998L12.8827 1.7533H15.0717L15.0882 7.17682ZM20.4446 7.17682H16.0667V1.7533H20.4612V2.88388H17.3767V3.867H20.3783V4.9812H17.3767V6.06262H20.4446V7.17682ZM26.6467 3.21159C26.6467 4.08001 26.0663 4.52241 25.7181 4.65349C26 4.76819 26.2487 4.94843 26.3648 5.11228C26.5472 5.37444 26.5804 5.62022 26.5804 6.11178V7.17682H25.2537V6.48864C25.2537 6.16094 25.2869 5.68576 25.0381 5.4236C24.8391 5.22698 24.5572 5.19421 24.0763 5.19421H22.6668V7.17682H21.3567V1.7533H24.3748C25.0381 1.7533 25.5356 1.76969 25.9668 2.01547C26.398 2.24486 26.6467 2.60534 26.6467 3.21159ZM28.7528 7.17682H27.4095V1.7533H28.7528V7.17682ZM44.3078 7.17682H42.4505L39.963 3.09689V7.17682H37.2931L36.779 5.96431H34.0428L33.5453 7.17682H32.0031C31.3563 7.17682 30.5603 7.02935 30.096 6.57057C29.6317 6.11178 29.3995 5.48914 29.3995 4.48964C29.3995 3.68676 29.5488 2.94943 30.1126 2.35956C30.5438 1.93354 31.2071 1.72053 32.1026 1.72053H33.3795V2.88388H32.1357C31.6548 2.88388 31.3895 2.94943 31.1242 3.21159C30.892 3.44098 30.7427 3.867 30.7427 4.44048C30.7427 5.03035 30.8588 5.43998 31.1076 5.71853C31.3066 5.93154 31.6714 5.99708 32.0197 5.99708H32.6166L34.474 1.72053H36.4474L38.6695 6.8655V1.7533H40.6761L42.9811 5.5383V1.7533H44.3244V7.17682H44.3078ZM0.893066 8.24186H3.13179L3.64587 7.02935H4.77352L5.27102 8.24186H9.68214V7.32429L10.0801 8.25825H12.3686L12.7666 7.32429V8.25825H23.7447V6.27563H23.9602C24.1095 6.27563 24.1592 6.29202 24.1592 6.5378V8.25825H29.8307V7.79946C30.295 8.04524 31.0081 8.25825 31.9367 8.25825H34.3247L34.8388 7.04574H35.9664L36.4639 8.25825H41.0741V7.11128L41.7705 8.25825H45.452V0.671875H41.8037V1.57306L41.3062 0.671875H37.5584V1.57306L37.0941 0.671875H32.0362C31.1905 0.671875 30.4443 0.786572 29.8473 1.11428V0.671875H26.3482V1.11428C25.9668 0.786572 25.4361 0.671875 24.8557 0.671875H12.1033L11.241 2.62172L10.3786 0.671875H6.34893V1.57306L5.91776 0.671875H2.48505L0.893066 4.27663V8.24186Z" fill="#2D92DC"/>
<path d="M47.6401 12.2565H45.2521C45.0199 12.2565 44.8541 12.2729 44.7214 12.3548C44.5888 12.4367 44.5224 12.5678 44.5224 12.7481C44.5224 12.9611 44.6385 13.0921 44.8044 13.1577C44.937 13.2068 45.0863 13.2232 45.3184 13.2232L46.0315 13.2396C46.7446 13.256 47.2255 13.3871 47.524 13.682C47.5737 13.7312 47.6069 13.7639 47.6401 13.8131V12.2565ZM47.6401 15.8449C47.325 16.3037 46.6948 16.533 45.8491 16.533H43.3119V15.3697H45.8325C46.0813 15.3697 46.2637 15.3369 46.3632 15.2386C46.4627 15.1567 46.5124 15.0256 46.5124 14.8781C46.5124 14.7143 46.4461 14.5996 46.3466 14.5177C46.2471 14.4357 46.1144 14.403 45.8823 14.403C44.6551 14.3538 43.1129 14.4357 43.1129 12.7153C43.1129 11.9288 43.627 11.0931 45.0034 11.0931H47.6235V10.0117H45.1858C44.4561 10.0117 43.9254 10.192 43.544 10.4541V10.0117H39.9455C39.3651 10.0117 38.7018 10.1592 38.3701 10.4541V10.0117H31.9524V10.4541C31.4383 10.0936 30.576 10.0117 30.178 10.0117H25.9327V10.4541C25.5347 10.0609 24.6227 10.0117 24.0754 10.0117H19.3326L18.2547 11.1751L17.2763 10.0117H10.1953V17.5981H17.1437L18.2547 16.4184L19.316 17.5981H23.5945V15.8285H24.0091C24.5729 15.8449 25.2528 15.8121 25.8332 15.5663V17.6145H29.3654V15.6319H29.5313C29.7469 15.6319 29.7634 15.6482 29.7634 15.8613V17.6145H40.5259C41.2058 17.6145 41.9189 17.4342 42.3169 17.1229V17.6145H45.7164C46.4295 17.6145 47.1094 17.5162 47.6401 17.2704V15.8449ZM42.3998 13.6656C42.6485 13.9278 42.7978 14.2555 42.7978 14.8126C42.7978 15.976 42.0516 16.533 40.7415 16.533H38.1877V15.3697H40.7415C40.9902 15.3697 41.1726 15.3369 41.2721 15.2386C41.3551 15.1567 41.4214 15.0256 41.4214 14.8781C41.4214 14.7143 41.3551 14.5996 41.2556 14.5177C41.1561 14.4357 41.0234 14.403 40.7912 14.403C39.5641 14.3538 38.0218 14.4357 38.0218 12.7153C38.0218 11.9288 38.5193 11.0931 39.8957 11.0931H42.5325V12.2565H40.1279C39.8957 12.2565 39.7299 12.2729 39.5972 12.3548C39.448 12.4367 39.3983 12.5678 39.3983 12.7481C39.3983 12.9611 39.5143 13.0921 39.6802 13.1577C39.8128 13.2068 39.9621 13.2232 40.1942 13.2232L40.9073 13.2396C41.6204 13.2396 42.1013 13.3707 42.3998 13.6656ZM30.5428 13.3379C30.3604 13.4362 30.1448 13.4526 29.8961 13.4526H28.3041V12.2401H29.9293C30.1614 12.2401 30.3936 12.2401 30.5594 12.3384C30.7253 12.4204 30.8248 12.6006 30.8248 12.83C30.8248 13.043 30.7253 13.2232 30.5428 13.3379ZM31.3388 14.0097C31.6373 14.1244 31.8695 14.3047 31.9856 14.4685C32.168 14.7307 32.2012 14.9764 32.2012 15.468V16.5494H30.8745V15.8776C30.8745 15.5499 30.9077 15.0748 30.6589 14.8126C30.4599 14.616 30.178 14.5668 29.6971 14.5668H28.2875V16.5494H26.9609V11.0931H29.9956C30.6589 11.0931 31.1398 11.1259 31.571 11.3553C31.9856 11.6011 32.2509 11.9452 32.2509 12.5678C32.2675 13.4362 31.6871 13.8786 31.3388 14.0097ZM32.9972 11.0931H37.3751V12.2237H34.2906V13.2068H37.2922V14.321H34.2906V15.4025H37.3751V16.533H32.9972V11.0931ZM24.1417 13.6001H22.4503V12.2237H24.1583C24.6392 12.2237 24.9543 12.4204 24.9543 12.8955C24.9543 13.3543 24.6392 13.6001 24.1417 13.6001ZM21.1236 16.0415L19.1005 13.8295L21.1236 11.683V16.0415ZM15.9165 15.4025H12.6828V14.321H15.5683V13.2068H12.6828V12.2237H15.9828L17.4256 13.8131L15.9165 15.4025ZM26.3639 12.8955C26.3639 14.403 25.2197 14.7143 24.0754 14.7143H22.4337V16.533H19.8799L18.2547 14.7307L16.5798 16.533H11.3727V11.0931H16.6627L18.2879 12.8791L19.9628 11.0931H24.1583C25.1865 11.0931 26.3639 11.3881 26.3639 12.8955Z" fill="#2D92DC"/>
</svg>
